#!OML:ASF H:\IndianDance\Patient Classification 1\Patient 1\Session 1\dancer.ASF
:FULLY-SPECIFIED
:DEGREES
2815
root 1.43884 14.7319 11.0533 186.891 6.03405 -178.009
lowerback 5.57841 7.18664 -0.21601
upperback -5.90732 9.96693 0.534406
thorax -9.51025 4.9891 -0.705776
lowerneck -9.10665 14.5962 13.4174
upperneck 12.1515 18.806 -6.89612
head 7.10694 9.21881 -2.3288
rclavicle -3.28989e-014 -1.86858e-014
rhumerus -13.0809 31.7995 -84.429
rradius 114.215
rwrist -97.9597
rhand -32.5508 -18.4042
rfingers 7.12502
rthumb -5.78057 -48.3053
lclavicle -3.28989e-014 -1.86858e-014
lhumerus 17.2973 -37.1981 41.6737
lradius 125.55
lwrist 69.2673
lhand 1.91485 44.0892
lfingers 7.12502
lthumb 27.4232 72.1133
rfemur -38.0653 -16.2091 3.96433
rtibia 67.4574
rfoot 0.661632 6.65441
rtoes -6.18385
lfemur -17.2527 10.7146 -4.19736
ltibia 44.2509
lfoot -16.2908 0.797028
ltoes -28.3757
2816
root 1.66939 14.7656 11.055 186.835 5.49591 -178.136
lowerback 5.63451 7.17995 -0.280565
upperback -5.8896 9.94332 0.479259
thorax -9.52422 4.97752 -0.731943
lowerneck -8.92892 14.7525 13.215
upperneck 11.5445 19.0152 -6.69452
head 6.85918 9.33691 -2.24578
rclavicle 1.05555e-013 4.17448e-015
rhumerus -14.4219 30.7643 -83.656
rradius 116.213
rwrist -97.8434
rhand -33.3277 -18.9154
rfingers 7.12502
rthumb -6.53061 -48.7947
lclavicle 1.05555e-013 4.17448e-015
lhumerus 17.3753 -34.837 40.7211
lradius 126.142
lwrist 69.0481
lhand 0.788511 45.9143
lfingers 7.12502
lthumb 26.3454 74.1043
rfemur -36.578 -15.3893 2.10415
rtibia 65.1694
rfoot 1.11017 2.94956
rtoes -4.3625
lfemur -16.4092 10.2646 -3.28867
ltibia 42.3859
lfoot -15.1898 0.182893
ltoes -29.3037
2817
root 1.90622 14.8079 11.0542 186.781 4.91172 -178.204
lowerback 5.69592 7.1774 -0.267159
upperback -5.88112 9.93367 0.418272
thorax -9.53685 4.9677 -0.808425
lowerneck -8.82353 14.886 13.0103
upperneck 11.0376 19.1862 -6.47809
head 6.65084 9.43394 -2.15739
rclavicle -3.47873e-016 9.54166e-015
rhumerus -15.9266 29.6152 -82.9182
rradius 118.208
rwrist -97.4446
rhand -34.1163 -19.6004
rfingers 7.12502
rthumb -7.29186 -49.4547
lclavicle -3.47873e-016 9.54166e-015
lhumerus 17.3975 -32.5091 39.8796
lradius 126.561
lwrist 68.9195
lhand -0.472649 47.8666
lfingers 7.12502
lthumb 25.1376 76.2316
rfemur -34.8954 -14.4601 0.431687
rtibia 62.5345
rfoot 1.91546 -0.879502
rtoes -1.70729
lfemur -15.464 9.67196 -2.34411
ltibia 40.2899
lfoot -13.8513 -0.259176
ltoes -30.0466
2818
root 2.14895 14.8574 11.0507 186.749 4.29715 -178.192
lowerback 5.73612 7.17213 -0.157194
upperback -5.88561 9.93234 0.35858
thorax -9.53472 4.95688 -0.933349
lowerneck -8.77064 15.004 12.8175
upperneck 10.6133 19.3316 -6.26585
head 6.47712 9.51613 -2.07042
rclavicle 1.76111e-014 7.15625e-015
rhumerus -17.5547 28.3659 -82.1962
rradius 120.182
rwrist -96.7762
rhand -34.8688 -20.5489
rfingers 7.12502
rthumb -8.0181 -50.3768
lclavicle 1.76111e-014 7.15625e-015
lhumerus 17.378 -30.2384 39.1114
lradius 126.803
lwrist 68.8761
lhand -1.76986 49.8737
lfingers 7.12502
lthumb 23.8941 78.4072
rfemur -33.0687 -13.4071 -1.01199
rtibia 59.5803
rfoot 3.08321 -4.73072
rtoes 1.56259
lfemur -14.4459 8.94533 -1.35237
ltibia 37.9892
lfoot -12.2701 -0.462323
ltoes -30.6246
2819
root 2.39784 14.9127 11.0444 186.77 3.66386 -178.102
lowerback 5.71983 7.16554 0.0251286
upperback -5.91549 9.94054 0.2967
thorax -9.51439 4.94827 -1.09393
lowerneck -8.76286 15.1104 12.6626
upperneck 10.2744 19.4549 -6.05989
head 6.34059 9.58636 -1.9878
rclavicle 6.25302e-014 1.72943e-014
rhumerus -19.2921 27.0046 -81.5003
rradius 122.107
rwrist -95.8462
rhand -35.5614 -21.7417
rfingers 7.12502
rthumb -8.6866 -51.543
lclavicle 6.25302e-014 1.72943e-014
lhumerus 17.346 -28.0824 38.3734
lradius 126.868
lwrist 68.8851
lhand -3.08138 51.8377
lfingers 7.12502
lthumb 22.6359 80.5304
rfemur -31.1539 -12.2082 -2.22662
rtibia 56.3436
rfoot 4.57601 -8.53291
rtoes 5.31524
lfemur -13.3994 8.09619 -0.32009
ltibia 35.5223
lfoot -10.4431 -0.427642
ltoes -30.7966
2820
root 2.6532 14.9714 11.0352 186.868 3.01329 -177.963
lowerback 5.61744 7.15442 0.227922
upperback -5.98015 9.94952 0.226797
thorax -9.47682 4.94164 -1.26448
lowerneck -8.80171 15.2113 12.5523
upperneck 10.0205 19.5629 -5.85711
head 6.24216 9.64849 -1.90769
rclavicle 3.72162e-014 1.32192e-014
rhumerus -21.1251 25.5293 -80.8149
rradius 123.971
rwrist -94.6923
rhand -36.1787 -23.0829
rfingers 7.12502
rthumb -9.28223 -52.8586
lclavicle 3.72162e-014 1.32192e-014
lhumerus 17.3263 -26.0622 37.6311
lradius 126.751
lwrist 68.866
lhand -4.33926 53.6958
lfingers 7.12502
lthumb 21.4281 82.5307
rfemur -29.2035 -10.8617 -3.2465
rtibia 52.8747
rfoot 6.35327 -12.1998
rtoes 9.22567
lfemur -12.3832 7.15283 0.714574
ltibia 32.941
lfoot -8.3731 -0.0899145
ltoes -30.6878
2821
root 2.91522 15.0312 11.0234 187.061 2.33742 -177.797
lowerback 5.40324 7.13456 0.411941
upperback -6.08217 9.94973 0.144982
thorax -9.41591 4.93554 -1.42368
lowerneck -8.87376 15.3086 12.489
upperneck 9.82839 19.6581 -5.65455
head 6.17228 9.70454 -1.83064
rclavicle -7.32087e-015 -5.96354e-016
rhumerus -23.0398 23.9366 -80.1296
rradius 125.756
rwrist -93.3316
rhand -36.6945 -24.4405
rfingers 7.12502
rthumb -9.77994 -54.1934
lclavicle -7.32087e-015 -5.96354e-016
lhumerus 17.3484 -24.1874 36.8341
lradius 126.46
lwrist 68.7209
lhand -5.50004 55.4071
lfingers 7.12502
lthumb 20.3129 84.3648
rfemur -27.255 -9.36348 -4.10921
rtibia 49.2313
rfoot 8.33284 -15.6581
rtoes 13.145
lfemur -11.4581 6.15602 1.73071
ltibia 30.3104
lfoot -6.08181 0.563802
ltoes -30.2793
2822
root 3.18445 15.0894 11.0095 187.352 1.63019 -177.632
lowerback 5.06909 7.10231 0.532147
upperback -6.22046 9.93095 0.0417462
thorax -9.33192 4.92776 -1.55527
lowerneck -8.96881 15.4011 12.4771
upperneck 9.67458 19.7372 -5.44573
head 6.12117 9.7539 -1.75711
rclavicle 2.07575e-014 -1.04362e-015
rhumerus -25.0314 22.236 -79.4347
rradius 127.455
rwrist -91.7879
rhand -37.1302 -25.6661
rfingers 7.12502
rthumb -10.2003 -55.3988
lclavicle 2.07575e-014 -1.04362e-015
lhumerus 17.4409 -22.4577 35.9349
lradius 125.998
lwrist 68.3708
lhand -6.59059 56.9513
lfingers 7.12502
lthumb 19.2645 86.0172
rfemur -25.3317 -7.707 -4.86322
rtibia 45.4788
rfoot 10.4322 -18.812
rtoes 16.836
lfemur -10.6719 5.15548 2.70194
ltibia 27.71
lfoot -3.61276 1.53727
ltoes -29.4536
2823
root 3.4607 15.1437 10.994 187.737 0.882311 -177.474
lowerback 4.61661 7.05431 0.578316
upperback -6.38428 9.88774 -0.0784956
thorax -9.21669 4.91654 -1.64812
lowerneck -9.09457 15.488 12.4997
upperneck 9.53948 19.799 -5.228
head 6.08179 9.79551 -1.68448
rclavicle 1.26892e-014 6.13748e-015
rhumerus -27.0802 20.4396 -78.6979
rradius 129.055
rwrist -90.045
rhand -37.4942 -26.5818
rfingers 7.12502
rthumb -10.5513 -56.2969
lclavicle 1.26892e-014 6.13748e-015
lhumerus 17.6248 -20.8595 34.9151
lradius 125.365
lwrist 67.7293
lhand -7.57314 58.3177
lfingers 7.12502
lthumb 18.3195 87.4751
rfemur -23.4563 -5.89398 -5.52092
rtibia 41.687
rfoot 12.6353 -21.5408
rtoes 20.0283
lfemur -10.0786 4.21273 3.63027
ltibia 25.2446
lfoot -1.03641 2.82605
ltoes -28.0944
